<?xml version="1.0" standalone="no"?><!DOCTYPE svg PUBLIC "-//W3C//DTD SVG 1.1//EN" "http://www.w3.org/Graphics/SVG/1.1/DTD/svg11.dtd"><svg class="icon" width="200px" height="200.00px" viewBox="0 0 1024 1024" version="1.1" xmlns="http://www.w3.org/2000/svg"><path d="M440.32 704a192 192 0 0 1 0-384v24.32a168.32 168.32 0 0 0 0 336z" fill="#34303D" /><path d="M440.32 512m-144 0a144 144 0 1 0 288 0 144 144 0 1 0-288 0Z" fill="#F6BE53" /><path d="M440.32 512m-84.48 0a84.48 84.48 0 1 0 168.96 0 84.48 84.48 0 1 0-168.96 0Z" fill="#FFFFFF" /><path d="M473.984 473.728l278.208-130.24 10.304 22.08-278.208 130.176zM474.368 549.952l10.24-22.08 278.4 130.112-10.368 22.016z" fill="#34303D" /><path d="M800 392.32a60.16 60.16 0 1 1 60.16-60.16 60.16 60.16 0 0 1-60.16 60.16z m0-96a35.84 35.84 0 1 0 35.84 35.84 35.84 35.84 0 0 0-35.84-35.84zM440.32 572.16A60.16 60.16 0 1 1 499.84 512a60.16 60.16 0 0 1-59.52 60.16z m0-96a35.84 35.84 0 1 0 35.84 35.84 35.84 35.84 0 0 0-35.84-35.84zM800 752a60.16 60.16 0 1 1 60.16-60.16 60.16 60.16 0 0 1-60.16 60.16z m0-96a35.84 35.84 0 1 0 35.84 35.84 35.84 35.84 0 0 0-35.84-35.84z" fill="#34303D" /><path d="M787.84 320h24.32v24.32h-24.32zM787.84 680.32h24.32v24.32h-24.32zM428.16 499.84h24.32v24.32h-24.32zM691.84 451.84h24.32v24.32h-24.32zM691.84 499.84h24.32v24.32h-24.32zM691.84 547.84h24.32v24.32h-24.32zM211.84 176h24.32v24.32h-24.32zM259.84 176h24.32v24.32h-24.32zM307.84 176h24.32v24.32h-24.32z" fill="#34303D" /><path d="M716.16 896H163.84V128h449.28l103.04 103.04V320h-24.32V241.28L602.88 152.32H188.16v720h503.68V704h24.32v192z" fill="#34303D" /><path d="M704 248.32H595.84V140.16h24.32V224H704v24.32zM211.84 224h360.32v24.32H211.84zM211.84 272h131.84v24.32H211.84zM368 272h300.16v24.32H368zM211.84 728.32h456.32v24.32H211.84zM211.84 776.32h83.84v24.32H211.84zM320 776.32h348.16v24.32H320zM211.84 824.32H416v24.32H211.84zM440.32 824.32h83.84v24.32H440.32z" fill="#34303D" /></svg>