<?xml version="1.0" standalone="no"?><!DOCTYPE svg PUBLIC "-//W3C//DTD SVG 1.1//EN" "http://www.w3.org/Graphics/SVG/1.1/DTD/svg11.dtd"><svg class="icon" width="200px" height="200.00px" viewBox="0 0 1024 1024" version="1.1" xmlns="http://www.w3.org/2000/svg"><path d="M728.32 625.92H464v-23.68H704V266.24H224v263.68h-23.68v-288h528v384z" fill="#34303D" /><path d="M247.68 289.92h432v288H247.68z" fill="#AFDDEA" /><path d="M547.84 385.92l-192 192h324.48v-60.16L547.84 385.92z" fill="#69C6DC" /><path d="M368 457.6L248.32 577.92h240L368 457.6z" fill="#69C6DC" /><path d="M421.76 379.52m-35.84 0a35.84 35.84 0 1 0 71.68 0 35.84 35.84 0 1 0-71.68 0Z" fill="#FFFFFF" /><path d="M176 601.6h216.32v144H176z" fill="#EA5E5A" /><path d="M440.32 794.24H128V554.24h312.32zM152.32 768H416V576H152.32z" fill="#34303D" /><path d="M259.84 650.24l48 23.68-48 24.32v-48z" fill="#FFFFFF" /><path d="M752 410.24h96v24.32h-96zM752 458.24h96v24.32h-96zM752 506.24h96v24.32h-96zM752 554.24h96v24.32h-96zM752 602.24h96v24.32h-96zM536.32 650.24h312.32v24.32H536.32zM536.32 698.24h312.32v24.32H536.32zM536.32 746.24h312.32v24.32H536.32zM536.32 794.24h192v24.32h-192z" fill="#34303D" /><path d="M896 865.92H488.32v-215.68H512v192h360.32V385.92h-120.32v-23.68H896v503.68zM656 158.08h24.32v24.32h-24.32zM872.32 289.92h-120.32V170.24h120.32z m-96-23.68h72.32V192h-72.32z" fill="#34303D" /><path d="M800 218.24h24.32v24.32h-24.32zM176 302.08h-23.68V193.92h107.52v24.32H176v83.84zM284.16 193.92h24.32v24.32h-24.32zM332.16 193.92h24.32v24.32h-24.32zM368 842.24h24.32v24.32h-24.32zM320 842.24h24.32v24.32H320zM416 842.24h24.32v24.32H416z" fill="#34303D" /></svg>